<svg width="91" height="27" viewBox="0 0 91 27" fill="none" xmlns="http://www.w3.org/2000/svg">
<path d="M0 13.9453V10.1953L15 3.5902V7.90483L4.73011 12.0277L4.86861 11.804V12.3367L4.73011 12.1129L15 16.2358V20.5504L0 13.9453ZM30.8276 7.29759C30.7423 6.43821 30.3766 5.7706 29.7303 5.29475C29.0839 4.81889 28.2068 4.58097 27.0989 4.58097C26.346 4.58097 25.7104 4.6875 25.1919 4.90057C24.6734 5.10654 24.2757 5.39418 23.9987 5.7635C23.7288 6.13282 23.5939 6.55185 23.5939 7.0206C23.5797 7.41122 23.6614 7.75213 23.8389 8.04333C24.0236 8.33452 24.2757 8.58665 24.5953 8.79972C24.9149 9.00568 25.2842 9.18679 25.7033 9.34304C26.1223 9.49219 26.5697 9.62003 27.0456 9.72656L29.0058 10.1953C29.9575 10.4084 30.8311 10.6925 31.6266 11.0476C32.422 11.4027 33.1109 11.8395 33.6933 12.358C34.2757 12.8764 34.7267 13.4872 35.0463 14.1903C35.373 14.8935 35.5399 15.6996 35.547 16.6087C35.5399 17.9439 35.199 19.1016 34.5243 20.0817C33.8567 21.0547 32.8908 21.8111 31.6266 22.3509C30.3695 22.8835 28.8531 23.1499 27.0776 23.1499C25.3162 23.1499 23.7821 22.88 22.4753 22.3402C21.1756 21.8004 20.1599 21.0014 19.4284 19.9432C18.704 18.8778 18.324 17.5604 18.2885 15.9908H22.7523C22.802 16.7223 23.0115 17.3331 23.3808 17.8232C23.7572 18.3061 24.258 18.6719 24.883 18.9205C25.5151 19.1619 26.2288 19.2827 27.0243 19.2827C27.8055 19.2827 28.4838 19.169 29.0591 18.9418C29.6415 18.7145 30.0925 18.3984 30.4121 17.9936C30.7317 17.5888 30.8915 17.1236 30.8915 16.598C30.8915 16.108 30.7459 15.696 30.4547 15.3622C30.1706 15.0284 29.7516 14.7443 29.1976 14.5099C28.6507 14.2756 27.9795 14.0625 27.1841 13.8707L24.8084 13.2742C22.9689 12.8267 21.5165 12.1271 20.4511 11.1754C19.3858 10.2237 18.8567 8.94176 18.8638 7.32955C18.8567 6.00852 19.2082 4.85441 19.9185 3.86719C20.6358 2.87997 21.6195 2.10938 22.8695 1.5554C24.1195 1.00142 25.5399 0.724434 27.1308 0.724434C28.7501 0.724434 30.1635 1.00142 31.3709 1.5554C32.5854 2.10938 33.53 2.87997 34.2047 3.86719C34.8794 4.85441 35.2274 5.99787 35.2487 7.29759H30.8276ZM49.8858 7.29759C49.8005 6.43821 49.4348 5.7706 48.7885 5.29475C48.1422 4.81889 47.265 4.58097 46.1571 4.58097C45.4042 4.58097 44.7686 4.6875 44.2501 4.90057C43.7316 5.10654 43.3339 5.39418 43.0569 5.7635C42.787 6.13282 42.6521 6.55185 42.6521 7.0206C42.6379 7.41122 42.7196 7.75213 42.8971 8.04333C43.0818 8.33452 43.3339 8.58665 43.6535 8.79972C43.9731 9.00568 44.3424 9.18679 44.7615 9.34304C45.1805 9.49219 45.6279 9.62003 46.1038 9.72656L48.064 10.1953C49.0157 10.4084 49.8893 10.6925 50.6848 11.0476C51.4802 11.4027 52.1691 11.8395 52.7515 12.358C53.3339 12.8764 53.7849 13.4872 54.1045 14.1903C54.4312 14.8935 54.5981 15.6996 54.6052 16.6087C54.5981 17.9439 54.2572 19.1016 53.5825 20.0817C52.9149 21.0547 51.949 21.8111 50.6848 22.3509C49.4277 22.8835 47.9113 23.1499 46.1358 23.1499C44.3744 23.1499 42.8403 22.88 41.5335 22.3402C40.2338 21.8004 39.2181 21.0014 38.4866 19.9432C37.7622 18.8778 37.3822 17.5604 37.3467 15.9908H41.8105C41.8602 16.7223 42.0697 17.3331 42.439 17.8232C42.8154 18.3061 43.3162 18.6719 43.9412 18.9205C44.5733 19.1619 45.287 19.2827 46.0825 19.2827C46.8637 19.2827 47.542 19.169 48.1173 18.9418C48.6997 18.7145 49.1507 18.3984 49.4703 17.9936C49.7899 17.5888 49.9497 17.1236 49.9497 16.598C49.9497 16.108 49.8041 15.696 49.5129 15.3622C49.2288 15.0284 48.8098 14.7443 48.2558 14.5099C47.7089 14.2756 47.0377 14.0625 46.2423 13.8707L43.8666 13.2742C42.0271 12.8267 40.5747 12.1271 39.5093 11.1754C38.444 10.2237 37.9149 8.94176 37.922 7.32955C37.9149 6.00852 38.2664 4.85441 38.9767 3.86719C39.694 2.87997 40.6777 2.10938 41.9277 1.5554C43.1777 1.00142 44.5981 0.724434 46.189 0.724434C47.8083 0.724434 49.2217 1.00142 50.4291 1.5554C51.6436 2.10938 52.5882 2.87997 53.2629 3.86719C53.9376 4.85441 54.2856 5.99787 54.3069 7.29759H49.8858ZM72.869 1.3113e-06L65.8377 26.1222H61.9279L68.9592 1.3113e-06H72.869ZM90.3398 15.9908L75.3398 22.5959V18.2813L85.6097 14.1584L85.4712 14.3821V13.8494L85.6097 14.0732L75.3398 9.95029V5.63566L90.3398 12.2408V15.9908Z" fill="#111827"/>
</svg>
