<svg xmlns="http://www.w3.org/2000/svg" fill="none" viewBox="0 0 156 151.16400000000002" style="max-height: 500px" width="156" height="151.16400000000002">
<path fill="white" d="M35.144 211.428C34.776 211.428 34.488 211.324 34.28 211.116C34.072 210.908 33.968 210.612 33.968 210.228V195.42C33.968 195.02 34.064 194.716 34.256 194.508C34.464 194.284 34.736 194.172 35.072 194.172C35.36 194.172 35.576 194.228 35.72 194.34C35.88 194.436 36.064 194.62 36.272 194.892L46.16 207.924H45.56V195.348C45.56 194.98 45.656 194.692 45.848 194.484C46.056 194.276 46.344 194.172 46.712 194.172C47.096 194.172 47.384 194.276 47.576 194.484C47.768 194.692 47.864 194.98 47.864 195.348V210.252C47.864 210.62 47.768 210.908 47.576 211.116C47.4 211.324 47.16 211.428 46.856 211.428C46.568 211.428 46.328 211.372 46.136 211.26C45.96 211.148 45.768 210.956 45.56 210.684L35.72 197.676H36.272V210.228C36.272 210.612 36.176 210.908 35.984 211.116C35.792 211.324 35.512 211.428 35.144 211.428ZM53.1479 211.26C52.7159 211.26 52.3799 211.148 52.1399 210.924C51.9159 210.684 51.8039 210.348 51.8039 209.916V195.684C51.8039 195.252 51.9159 194.924 52.1399 194.7C52.3799 194.46 52.7159 194.34 53.1479 194.34H61.9079C62.2439 194.34 62.4999 194.428 62.6759 194.604C62.8519 194.764 62.9399 195.004 62.9399 195.324C62.9399 195.66 62.8519 195.916 62.6759 196.092C62.4999 196.268 62.2439 196.356 61.9079 196.356H54.2039V201.66H61.3799C61.7319 201.66 61.9879 201.748 62.1479 201.924C62.3239 202.1 62.4119 202.348 62.4119 202.668C62.4119 203.004 62.3239 203.26 62.1479 203.436C61.9879 203.596 61.7319 203.676 61.3799 203.676H54.2039V209.244H61.9079C62.2439 209.244 62.4999 209.332 62.6759 209.508C62.8519 209.684 62.9399 209.932 62.9399 210.252C62.9399 210.588 62.8519 210.844 62.6759 211.02C62.4999 211.18 62.2439 211.26 61.9079 211.26H53.1479ZM65.9401 211.428C65.6201 211.428 65.3561 211.348 65.1481 211.188C64.9401 211.012 64.8201 210.796 64.7881 210.54C64.7561 210.268 64.8441 209.996 65.0521 209.724L70.7161 202.116V203.124L65.3641 195.924C65.1561 195.636 65.0601 195.356 65.0761 195.084C65.1081 194.812 65.2281 194.596 65.4361 194.436C65.6441 194.26 65.9001 194.172 66.2041 194.172C66.4601 194.172 66.6841 194.236 66.8761 194.364C67.0841 194.476 67.2921 194.676 67.5001 194.964L72.1561 201.348H71.3881L75.9961 194.964C76.2041 194.676 76.4041 194.476 76.5961 194.364C76.8041 194.236 77.0441 194.172 77.3161 194.172C77.6361 194.172 77.9001 194.26 78.1081 194.436C78.3161 194.596 78.4281 194.812 78.4441 195.084C78.4761 195.34 78.3801 195.62 78.1561 195.924L72.8041 203.124V202.116L78.4441 209.724C78.6521 209.996 78.7401 210.268 78.7081 210.54C78.6921 210.796 78.5801 211.012 78.3721 211.188C78.1641 211.348 77.8921 211.428 77.5561 211.428C77.3161 211.428 77.0921 211.364 76.8841 211.236C76.6761 211.108 76.4601 210.908 76.2361 210.636L71.2921 203.868H72.2041L67.2841 210.636C67.0761 210.908 66.8601 211.108 66.6361 211.236C66.4281 211.364 66.1961 211.428 65.9401 211.428ZM87.0159 211.428C86.6159 211.428 86.3039 211.316 86.0799 211.092C85.8719 210.868 85.7679 210.556 85.7679 210.156V196.428H80.6799C80.3439 196.428 80.0799 196.34 79.8879 196.164C79.6959 195.972 79.5999 195.708 79.5999 195.372C79.5999 195.036 79.6959 194.78 79.8879 194.604C80.0799 194.428 80.3439 194.34 80.6799 194.34H93.3279C93.6799 194.34 93.9519 194.428 94.1439 194.604C94.3359 194.78 94.4319 195.036 94.4319 195.372C94.4319 195.708 94.3359 195.972 94.1439 196.164C93.9519 196.34 93.6799 196.428 93.3279 196.428H88.2399V210.156C88.2399 210.556 88.1359 210.868 87.9279 211.092C87.7359 211.316 87.4319 211.428 87.0159 211.428ZM101.536 211.404C101.168 211.42 100.88 211.324 100.672 211.116C100.464 210.908 100.36 210.644 100.36 210.324C100.36 210.084 100.44 209.868 100.6 209.676C100.744 209.484 100.96 209.38 101.248 209.364L101.992 209.316C102.76 209.252 103.344 208.996 103.744 208.548C104.144 208.084 104.344 207.444 104.344 206.628V195.42C104.344 195.004 104.448 194.692 104.656 194.484C104.864 194.276 105.168 194.172 105.568 194.172C105.968 194.172 106.272 194.276 106.48 194.484C106.704 194.692 106.816 195.004 106.816 195.42V206.628C106.816 207.588 106.64 208.412 106.288 209.1C105.952 209.772 105.456 210.3 104.8 210.684C104.144 211.068 103.328 211.292 102.352 211.356L101.536 211.404ZM116.389 211.476C115.653 211.476 114.933 211.42 114.229 211.308C113.525 211.196 112.861 211.028 112.237 210.804C111.613 210.564 111.053 210.276 110.557 209.94C110.317 209.764 110.149 209.564 110.053 209.34C109.973 209.116 109.949 208.9 109.981 208.692C110.029 208.468 110.125 208.276 110.269 208.116C110.413 207.956 110.589 207.86 110.797 207.828C111.005 207.78 111.237 207.844 111.493 208.02C112.213 208.484 112.973 208.828 113.773 209.052C114.573 209.26 115.445 209.364 116.389 209.364C117.749 209.364 118.749 209.124 119.389 208.644C120.045 208.148 120.373 207.508 120.373 206.724C120.373 206.084 120.141 205.58 119.677 205.212C119.213 204.828 118.437 204.524 117.349 204.3L114.781 203.772C113.261 203.452 112.125 202.924 111.373 202.188C110.637 201.452 110.269 200.46 110.269 199.212C110.269 198.46 110.421 197.772 110.725 197.148C111.045 196.524 111.485 195.988 112.045 195.54C112.605 195.076 113.277 194.724 114.061 194.484C114.845 194.244 115.701 194.124 116.629 194.124C117.621 194.124 118.549 194.252 119.413 194.508C120.293 194.764 121.077 195.156 121.765 195.684C121.973 195.828 122.109 196.012 122.173 196.236C122.253 196.444 122.269 196.652 122.221 196.86C122.189 197.068 122.101 197.244 121.957 197.388C121.813 197.532 121.629 197.62 121.405 197.652C121.181 197.668 120.933 197.588 120.661 197.412C120.037 196.996 119.397 196.7 118.741 196.524C118.101 196.332 117.389 196.236 116.605 196.236C115.821 196.236 115.133 196.356 114.541 196.596C113.965 196.836 113.517 197.172 113.197 197.604C112.893 198.036 112.741 198.548 112.741 199.14C112.741 199.812 112.957 200.348 113.389 200.748C113.821 201.148 114.541 201.452 115.549 201.66L118.093 202.188C119.693 202.524 120.885 203.044 121.669 203.748C122.453 204.452 122.845 205.388 122.845 206.556C122.845 207.308 122.693 207.988 122.389 208.596C122.085 209.188 121.653 209.7 121.093 210.132C120.533 210.564 119.853 210.9 119.053 211.14C118.269 211.364 117.381 211.476 116.389 211.476Z"/>
<g clip-path="url(#clip0_2037_2)">
<circle fill="#D9D9D9" r="76" cy="77" cx="78"/>
<path fill="black" d="M115.776 143.461C115.196 143.763 115.245 143.858 115.801 143.581C115.981 143.509 116.132 143.409 116.264 143.289C116.264 143.189 116.264 143.189 115.776 143.461ZM116.946 142.84C116.668 143.065 116.669 143.065 117 142.916C117.175 142.816 117.332 142.72 117.332 142.692C117.332 142.563 117.253 142.591 116.946 142.84ZM117.707 142.39C117.429 142.615 117.429 142.615 117.76 142.467C117.941 142.367 118.092 142.261 118.092 142.237C118.092 142.118 118.014 142.142 117.707 142.39ZM118.477 141.946C118.199 142.17 118.199 142.17 118.521 142.017C118.701 141.922 118.852 141.821 118.852 141.793C118.852 141.673 118.774 141.697 118.477 141.946ZM119.516 141.272C118.984 141.621 118.799 141.845 119.286 141.597C119.613 141.401 120.169 140.97 120.071 140.97C119.862 141.047 119.686 141.176 119.511 141.272H119.516ZM72.8959 0.0525984C72.54 0.0765046 71.4724 0.17213 70.5364 0.24863C48.3649 2.2185 27.6217 13.923 14.4739 31.9531C7.20525 41.8359 2.48625 53.3157 0.706875 65.3693C0.078 69.5768 0 70.8199 0 76.5239C0 82.2232 0.078 83.4472 0.706875 87.6547C4.953 116.395 25.7985 140.521 54.054 149.462C59.1386 151.054 64.467 152.154 70.5364 152.828C72.8959 153.077 83.0993 153.077 85.4588 152.828C95.9498 151.68 104.808 149.142 113.573 144.757C114.918 144.088 115.172 143.911 114.991 143.763C110.701 138.212 106.49 132.656 102.273 127.052L89.8073 110.543L74.1926 87.8555C68.9861 80.2629 63.7601 72.6894 58.4512 65.1732C58.3976 65.1732 58.3294 75.2569 58.3001 87.5543C58.2465 109.094 58.2465 109.969 57.9686 110.466C57.6908 111.064 57.2325 111.561 56.6231 111.838C56.1405 112.063 55.7066 112.111 53.4008 112.111H50.7634L50.076 111.69C49.647 111.417 49.2911 111.04 49.062 110.595L48.7305 109.921L48.7549 79.9377L48.8085 49.9545L49.2911 49.3569C49.5983 48.9887 49.9785 48.6875 50.4075 48.4628C51.0461 48.1615 51.2996 48.1137 53.937 48.1137C57.0326 48.1137 57.5445 48.2333 58.3586 49.1082C64.6766 58.3456 70.9751 67.6069 77.1712 76.8969C87.3064 91.9674 101.142 112.532 107.942 122.62L120.31 140.975L120.92 140.578C126.862 136.691 132.269 132.063 136.934 126.784C146.762 115.749 153.138 102.175 155.298 87.6881C155.927 83.4806 156.005 82.2327 156.005 76.5335C156.005 70.8294 155.927 69.6102 155.298 65.4027C151.052 36.6626 130.206 12.5364 101.951 3.59072C96.6664 1.95076 91.2307 0.831942 85.7269 0.258192C84.2497 0.109973 74.1683 -0.0669329 72.9007 0.0621609L72.8959 0.0525984ZM104.812 46.3208C105.549 46.665 106.104 47.3153 106.358 48.0611C106.489 48.4628 106.514 56.7774 106.49 75.5055L106.436 102.395L101.615 95.1278L96.7639 87.8555V68.3336C96.7639 55.6777 96.8175 48.5823 96.8857 48.2333C97.1149 47.4348 97.6706 46.7654 98.4116 46.3447C99.0161 46.0434 99.2501 46.0195 101.663 46.0195C103.92 46.0195 104.305 46.0434 104.812 46.3208Z"/>
</g>
<defs>
<clipPath id="clip0_2037_2">
<rect fill="white" height="153" width="156"/>
</clipPath>
</defs>
</svg>