<svg xmlns="http://www.w3.org/2000/svg" fill="none" viewBox="0 0 156.43943661971832 157.07999999999998" style="max-height: 500px" width="156.43943661971832" height="157.07999999999998">
<path fill="white" d="M16.608 210.476C15.872 210.476 15.152 210.42 14.448 210.308C13.744 210.196 13.08 210.028 12.456 209.804C11.832 209.564 11.272 209.276 10.776 208.94C10.536 208.764 10.368 208.564 10.272 208.34C10.192 208.116 10.168 207.9 10.2 207.692C10.248 207.468 10.344 207.276 10.488 207.116C10.632 206.956 10.808 206.86 11.016 206.828C11.224 206.78 11.456 206.844 11.712 207.02C12.432 207.484 13.192 207.828 13.992 208.052C14.792 208.26 15.664 208.364 16.608 208.364C17.968 208.364 18.968 208.124 19.608 207.644C20.264 207.148 20.592 206.508 20.592 205.724C20.592 205.084 20.36 204.58 19.896 204.212C19.432 203.828 18.656 203.524 17.568 203.3L15 202.772C13.48 202.452 12.344 201.924 11.592 201.188C10.856 200.452 10.488 199.46 10.488 198.212C10.488 197.46 10.64 196.772 10.944 196.148C11.264 195.524 11.704 194.988 12.264 194.54C12.824 194.076 13.496 193.724 14.28 193.484C15.064 193.244 15.92 193.124 16.848 193.124C17.84 193.124 18.768 193.252 19.632 193.508C20.512 193.764 21.296 194.156 21.984 194.684C22.192 194.828 22.328 195.012 22.392 195.236C22.472 195.444 22.488 195.652 22.44 195.86C22.408 196.068 22.32 196.244 22.176 196.388C22.032 196.532 21.848 196.62 21.624 196.652C21.4 196.668 21.152 196.588 20.88 196.412C20.256 195.996 19.616 195.7 18.96 195.524C18.32 195.332 17.608 195.236 16.824 195.236C16.04 195.236 15.352 195.356 14.76 195.596C14.184 195.836 13.736 196.172 13.416 196.604C13.112 197.036 12.96 197.548 12.96 198.14C12.96 198.812 13.176 199.348 13.608 199.748C14.04 200.148 14.76 200.452 15.768 200.66L18.312 201.188C19.912 201.524 21.104 202.044 21.888 202.748C22.672 203.452 23.064 204.388 23.064 205.556C23.064 206.308 22.912 206.988 22.608 207.596C22.304 208.188 21.872 208.7 21.312 209.132C20.752 209.564 20.072 209.9 19.272 210.14C18.488 210.364 17.6 210.476 16.608 210.476ZM27.1457 210.428C26.7457 210.428 26.4337 210.316 26.2097 210.092C26.0017 209.868 25.8977 209.556 25.8977 209.156V194.444C25.8977 194.028 26.0017 193.716 26.2097 193.508C26.4337 193.284 26.7457 193.172 27.1457 193.172C27.5457 193.172 27.8497 193.284 28.0577 193.508C28.2817 193.716 28.3937 194.028 28.3937 194.444V200.636H37.8737V194.444C37.8737 194.028 37.9777 193.716 38.1857 193.508C38.4097 193.284 38.7217 193.172 39.1217 193.172C39.5217 193.172 39.8257 193.284 40.0337 193.508C40.2417 193.716 40.3457 194.028 40.3457 194.444V209.156C40.3457 209.556 40.2417 209.868 40.0337 210.092C39.8257 210.316 39.5217 210.428 39.1217 210.428C38.7217 210.428 38.4097 210.316 38.1857 210.092C37.9777 209.868 37.8737 209.556 37.8737 209.156V202.724H28.3937V209.156C28.3937 209.556 28.2897 209.868 28.0817 210.092C27.8737 210.316 27.5617 210.428 27.1457 210.428ZM44.2001 210.428C43.8801 210.428 43.6241 210.356 43.4321 210.212C43.2401 210.068 43.1281 209.876 43.0961 209.636C43.0641 209.396 43.1121 209.124 43.2401 208.82L49.7441 194.228C49.9041 193.844 50.1041 193.572 50.3441 193.412C50.6001 193.252 50.8801 193.172 51.1841 193.172C51.4721 193.172 51.7361 193.252 51.9761 193.412C52.2321 193.572 52.4401 193.844 52.6001 194.228L59.1041 208.82C59.2481 209.124 59.3041 209.404 59.2721 209.66C59.2401 209.9 59.1361 210.092 58.9601 210.236C58.7841 210.364 58.5361 210.428 58.2161 210.428C57.8641 210.428 57.5841 210.34 57.3761 210.164C57.1681 209.988 56.9841 209.716 56.8241 209.348L55.1441 205.46L56.2721 206.132H46.0481L47.1521 205.46L45.4961 209.348C45.3361 209.732 45.1601 210.012 44.9681 210.188C44.7761 210.348 44.5201 210.428 44.2001 210.428ZM51.1361 196.1L47.5121 204.692L46.9121 204.116H55.3841L54.8321 204.692L51.1841 196.1H51.1361ZM63.312 210.26C62.88 210.26 62.544 210.148 62.304 209.924C62.08 209.684 61.968 209.348 61.968 208.916V194.684C61.968 194.252 62.08 193.924 62.304 193.7C62.544 193.46 62.88 193.34 63.312 193.34H67.944C70.728 193.34 72.872 194.068 74.376 195.524C75.896 196.964 76.656 199.052 76.656 201.788C76.656 203.148 76.464 204.356 76.08 205.412C75.696 206.468 75.128 207.356 74.376 208.076C73.64 208.78 72.736 209.324 71.664 209.708C70.592 210.076 69.352 210.26 67.944 210.26H63.312ZM64.464 208.172H67.8C68.856 208.172 69.768 208.044 70.536 207.788C71.32 207.516 71.976 207.116 72.504 206.588C73.032 206.06 73.424 205.396 73.68 204.596C73.936 203.796 74.064 202.86 74.064 201.788C74.064 199.66 73.536 198.068 72.48 197.012C71.44 195.956 69.88 195.428 67.8 195.428H64.464V208.172ZM87.5754 210.476C85.8634 210.476 84.3994 210.124 83.1834 209.42C81.9674 208.716 81.0314 207.716 80.3754 206.42C79.7354 205.108 79.4154 203.564 79.4154 201.788C79.4154 200.46 79.5994 199.268 79.9674 198.212C80.3354 197.14 80.8634 196.228 81.5514 195.476C82.2554 194.708 83.1114 194.124 84.1194 193.724C85.1434 193.324 86.2954 193.124 87.5754 193.124C88.5194 193.124 89.4234 193.252 90.2874 193.508C91.1674 193.764 91.9274 194.132 92.5674 194.612C92.8394 194.788 93.0154 195.004 93.0954 195.26C93.1914 195.5 93.2074 195.732 93.1434 195.956C93.0954 196.18 92.9914 196.372 92.8314 196.532C92.6714 196.676 92.4634 196.756 92.2074 196.772C91.9674 196.788 91.7034 196.7 91.4154 196.508C90.8874 196.108 90.3034 195.812 89.6634 195.62C89.0234 195.428 88.3514 195.332 87.6474 195.332C86.4314 195.332 85.4074 195.588 84.5754 196.1C83.7434 196.596 83.1114 197.324 82.6794 198.284C82.2474 199.244 82.0314 200.412 82.0314 201.788C82.0314 203.164 82.2474 204.34 82.6794 205.316C83.1114 206.276 83.7434 207.012 84.5754 207.524C85.4074 208.02 86.4314 208.268 87.6474 208.268C88.3514 208.268 89.0234 208.172 89.6634 207.98C90.3194 207.772 90.9354 207.468 91.5114 207.068C91.7994 206.892 92.0554 206.812 92.2794 206.828C92.5194 206.844 92.7194 206.924 92.8794 207.068C93.0394 207.212 93.1434 207.396 93.1914 207.62C93.2554 207.828 93.2474 208.052 93.1674 208.292C93.1034 208.516 92.9514 208.708 92.7114 208.868C92.0554 209.396 91.2794 209.796 90.3834 210.068C89.4874 210.34 88.5514 210.476 87.5754 210.476ZM97.3862 210.428C97.0182 210.428 96.7302 210.324 96.5222 210.116C96.3142 209.908 96.2102 209.612 96.2102 209.228V194.42C96.2102 194.02 96.3062 193.716 96.4982 193.508C96.7062 193.284 96.9782 193.172 97.3142 193.172C97.6022 193.172 97.8182 193.228 97.9622 193.34C98.1222 193.436 98.3062 193.62 98.5142 193.892L108.402 206.924H107.802V194.348C107.802 193.98 107.898 193.692 108.09 193.484C108.298 193.276 108.586 193.172 108.954 193.172C109.338 193.172 109.626 193.276 109.818 193.484C110.01 193.692 110.106 193.98 110.106 194.348V209.252C110.106 209.62 110.01 209.908 109.818 210.116C109.642 210.324 109.402 210.428 109.098 210.428C108.81 210.428 108.57 210.372 108.378 210.26C108.202 210.148 108.01 209.956 107.802 209.684L97.9622 196.676H98.5142V209.228C98.5142 209.612 98.4182 209.908 98.2262 210.116C98.0342 210.324 97.7542 210.428 97.3862 210.428ZM114.598 204.836C114.31 204.836 114.07 204.74 113.878 204.548C113.686 204.356 113.59 204.124 113.59 203.852C113.59 203.564 113.686 203.332 113.878 203.156C114.07 202.964 114.31 202.868 114.598 202.868H119.878C120.15 202.868 120.382 202.964 120.574 203.156C120.766 203.332 120.862 203.564 120.862 203.852C120.862 204.124 120.766 204.356 120.574 204.548C120.382 204.74 120.15 204.836 119.878 204.836H114.598ZM131.175 210.476C130.039 210.476 129.039 210.332 128.175 210.044C127.311 209.74 126.583 209.292 125.991 208.7C125.415 208.108 124.975 207.372 124.671 206.492C124.367 205.612 124.215 204.596 124.215 203.444V194.42C124.215 194.004 124.319 193.692 124.527 193.484C124.751 193.276 125.063 193.172 125.463 193.172C125.863 193.172 126.167 193.276 126.375 193.484C126.599 193.692 126.711 194.004 126.711 194.42V203.396C126.711 205.044 127.087 206.276 127.839 207.092C128.607 207.908 129.719 208.316 131.175 208.316C132.647 208.316 133.759 207.908 134.511 207.092C135.263 206.276 135.639 205.044 135.639 203.396V194.42C135.639 194.004 135.743 193.692 135.951 193.484C136.175 193.276 136.479 193.172 136.863 193.172C137.263 193.172 137.567 193.276 137.775 193.484C137.983 193.692 138.087 194.004 138.087 194.42V203.444C138.087 204.98 137.823 206.276 137.295 207.332C136.783 208.372 136.015 209.156 134.991 209.684C133.967 210.212 132.695 210.476 131.175 210.476ZM143.185 210.428C142.785 210.428 142.473 210.316 142.249 210.092C142.041 209.868 141.937 209.556 141.937 209.156V194.444C141.937 194.028 142.041 193.716 142.249 193.508C142.473 193.284 142.785 193.172 143.185 193.172C143.585 193.172 143.889 193.284 144.097 193.508C144.321 193.716 144.433 194.028 144.433 194.444V209.156C144.433 209.556 144.329 209.868 144.121 210.092C143.913 210.316 143.601 210.428 143.185 210.428Z"/>
<g clip-path="url(#clip0_2227_44)">
<path fill="#0A0A0A" d="M0 78V156H78H156V78V0H78H0V78Z"/>
</g>
<g clip-path="url(#clip1_2227_44)">
<path stroke-linejoin="round" stroke-linecap="round" stroke-width="24" stroke="white" d="M127.75 84L84 127.75"/>
<path stroke-linejoin="round" stroke-linecap="round" stroke-width="24" stroke="white" d="M119 35.875L35.875 119"/>
</g>
<defs>
<clipPath id="clip0_2227_44">
<rect fill="white" height="156" width="156"/>
</clipPath>
<clipPath id="clip1_2227_44">
<rect transform="translate(14 14)" fill="white" height="140" width="140"/>
</clipPath>
</defs>
</svg>